<?xml version="1.0" encoding="UTF-8"?><svg id="b" xmlns="http://www.w3.org/2000/svg" viewBox="0 0 150 150"><path d="M132.08,91.4s-13.54-9.38-32.86-3.74" fill="none" stroke="#edf1d7" stroke-linecap="round" stroke-linejoin="round" stroke-width="1.5"/><path d="M96.48,91.32s17.09-4.16,32.51,7.06" fill="none" stroke="#edf1d7" stroke-linecap="round" stroke-linejoin="round" stroke-width="1.5"/><path d="M17.92,91.4s13.54-9.38,32.86-3.74" fill="none" stroke="#edf1d7" stroke-linecap="round" stroke-linejoin="round" stroke-width="1.5"/><path d="M53.52,91.32s-17.09-4.16-32.51,7.06" fill="none" stroke="#edf1d7" stroke-linecap="round" stroke-linejoin="round" stroke-width="1.5"/><path d="M29.35,68.42s15.52-5.63,24.64-10.06c9.12-4.43,14.52-22.59,14.52-22.59,0,0-21.87-10.22-28.84-12.94-1.96-.77-4.15.3-4.76,2.31-2.17,7.17-5.56,43.28-5.56,43.28Z" fill="#f9b728" stroke="#231f20" stroke-linecap="round" stroke-linejoin="round" stroke-width="1.5"/><path d="M36.71,62.44s10.7-1.48,16.98-4.53c6.28-3.05,10-15.56,10-15.56,0,0-15.07-7.04-19.87-8.92-1.35-.53-2.86.21-3.28,1.59-1.49,4.94-3.83,27.42-3.83,27.42Z" fill="#f9f4da" stroke="#231f20" stroke-linecap="round" stroke-linejoin="round" stroke-width="1.5"/><path d="M120.65,68.42s-15.52-5.63-24.64-10.06-14.52-22.59-14.52-22.59c0,0,21.87-10.22,28.84-12.94,1.96-.77,4.15.3,4.76,2.31,2.17,7.17,5.56,43.28,5.56,43.28Z" fill="#f9b728" stroke="#231f20" stroke-linecap="round" stroke-linejoin="round" stroke-width="1.5"/><path d="M113.29,62.44s-10.7-1.48-16.98-4.53c-6.28-3.05-10-15.56-10-15.56,0,0,15.07-7.04,19.87-8.92,1.35-.53,2.86.21,3.28,1.59,1.49,4.94,3.83,27.42,3.83,27.42Z" fill="#f9f4da" stroke="#231f20" stroke-linecap="round" stroke-linejoin="round" stroke-width="1.5"/><path d="M122.68,84.57c0,26.33-37.13,42.85-47.68,42.85s-47.68-16.52-47.68-42.85,14.71-49.59,47.68-49.59,47.68,23.26,47.68,49.59Z" fill="#f9b728" stroke="#231f20" stroke-linecap="round" stroke-linejoin="round" stroke-width="1.5"/><path d="M97.82,97.34c0,12.6-10.22,22.82-22.82,22.82s-22.82-10.22-22.82-22.82c0,0,8.11,4.06,22.82,4.06s22.82-4.06,22.82-4.06Z" fill="#231f20" stroke="#231f20" stroke-linecap="round" stroke-linejoin="round" stroke-width="1.5"/><path d="M67.08,53.67c-4.22-1.77-9.09.13-11.25,4.17l-2.23,4.18s-.02.02-.03.01l-4.18-2.23c-4.03-2.16-9.15-1.04-11.67,2.78-2.89,4.37-1.34,10.22,3.17,12.63l4.4,2.35h0s15.5,8.3,15.5,8.3c.01,0,.03,0,.03-.01l8.3-15.5h0s2.35-4.4,2.35-4.4c2.41-4.51.46-10.25-4.37-12.27Z" fill="#ea203d" stroke="#231f20" stroke-linecap="round" stroke-linejoin="round" stroke-width="1.5"/><path d="M82.92,52.66c4.22-1.77,9.09.13,11.25,4.17l2.23,4.18s.02.02.03.01l4.18-2.23c4.03-2.16,9.15-1.04,11.67,2.78,2.89,4.37,1.34,10.22-3.17,12.63l-4.4,2.35h0s-15.5,8.3-15.5,8.3c-.01,0-.03,0-.03-.01l-8.3-15.5h0s-2.35-4.4-2.35-4.4c-2.41-4.51-.46-10.25,4.37-12.27Z" fill="#ea203d" stroke="#231f20" stroke-linecap="round" stroke-linejoin="round" stroke-width="1.5"/><path d="M69.64,87.38c-1.06.41-1.48,1.66-.83,2.58.41.6.92,1.29,1.56,1.93,1.16,1.15,2.31,1.93,3.31,2.48.83.46,1.8.46,2.63,0,1.01-.55,2.16-1.33,3.31-2.48.64-.64,1.15-1.29,1.57-1.93.64-.92.22-2.16-.83-2.58-1.38-.51-3.22-1.01-5.47-.97-2.12,0-3.91.46-5.24.97h0Z" fill="#f97428" stroke="#231f20" stroke-linecap="round" stroke-linejoin="round" stroke-width="1.5"/><path d="M122.54,87.31c-5.78-1.58-13.85-2.42-23.31.34" fill="none" stroke="#231f20" stroke-linecap="round" stroke-linejoin="round" stroke-width="1.5"/><path d="M96.48,91.32s11.78-2.87,24.6,2.58" fill="none" stroke="#231f20" stroke-linecap="round" stroke-linejoin="round" stroke-width="1.5"/><path d="M27.46,87.31c5.78-1.58,13.85-2.42,23.31.34" fill="none" stroke="#231f20" stroke-linecap="round" stroke-linejoin="round" stroke-width="1.5"/><path d="M53.52,91.32s-11.78-2.87-24.6,2.58" fill="none" stroke="#231f20" stroke-linecap="round" stroke-linejoin="round" stroke-width="1.5"/><path d="M75,120.16c3.33,0,6.48-.72,9.33-2-1.07-3.48-4.83-6.06-9.33-6.06s-8.27,2.58-9.34,6.06c2.85,1.28,6.01,2,9.34,2Z" fill="#f088a0" stroke="#231f20" stroke-linecap="round" stroke-linejoin="round" stroke-width="1.5"/></svg>